HIERARCHY
ROOT Hips
{
	OFFSET 0.000000 0.000000 0.000000
	CHANNELS 6 Xposition Yposition Zposition Zrotation Yrotation Xrotation 
	JOINT LHipJoint
	{
		OFFSET 0.000000 0.000000 0.000000
		CHANNELS 3 Zrotation Yrotation Xrotation
		JOINT LeftUpLeg
		{
			OFFSET 1.363060 -1.794630 0.839290
			CHANNELS 3 Zrotation Yrotation Xrotation
			JOINT LeftLeg
			{
				OFFSET 2.448110 -6.726130 0.000000
				CHANNELS 3 Zrotation Yrotation Xrotation
				JOINT LeftFoot
				{
					OFFSET 2.562200 -7.039590 0.000000
					CHANNELS 3 Zrotation Yrotation Xrotation
					JOINT LeftToeBase
					{
						OFFSET 0.157640 -0.433110 2.322550
						CHANNELS 3 Zrotation Yrotation Xrotation
						End Site
						{
							OFFSET 0.000000 0.000000 0.000000
						}
					}
				}
			}
		}
	}
	JOINT RHipJoint
	{
		OFFSET 0.000000 0.000000 0.000000
		CHANNELS 3 Zrotation Yrotation Xrotation
		JOINT RightUpLeg
		{
			OFFSET -1.305520 -1.794630 0.839290
			CHANNELS 3 Zrotation Yrotation Xrotation
			JOINT RightLeg
			{
				OFFSET -2.542530 -6.985550 0.000000
				CHANNELS 3 Zrotation Yrotation Xrotation
				JOINT RightFoot
				{
					OFFSET -2.568260 -7.056230 0.000000
					CHANNELS 3 Zrotation Yrotation Xrotation
					JOINT RightToeBase
					{
						OFFSET -0.164730 -0.452590 2.363150
						CHANNELS 3 Zrotation Yrotation Xrotation
						End Site
						{
							OFFSET 0.000000 0.000000 0.000000
						}
					}
				}
			}
		}
	}
	JOINT LowerBack
	{
		OFFSET 0.000000 0.000000 0.000000
		CHANNELS 3 Zrotation Yrotation Xrotation
		JOINT Spine
		{
			OFFSET 0.028270 2.035590 -0.193380
			CHANNELS 3 Zrotation Yrotation Xrotation
			JOINT Spine1
			{
				OFFSET 0.056720 2.048850 -0.042750
				CHANNELS 3 Zrotation Yrotation Xrotation
				JOINT Neck
				{
					OFFSET 0.000000 0.000000 0.000000
					CHANNELS 3 Zrotation Yrotation Xrotation
					JOINT Neck1
					{
						OFFSET -0.054170 1.746240 0.172020
						CHANNELS 3 Zrotation Yrotation Xrotation
						JOINT Head
						{
							OFFSET 0.104070 1.761360 -0.123970
							CHANNELS 3 Zrotation Yrotation Xrotation
							End Site
							{
								OFFSET 0.000000 0.000000 0.000000
							}
						}
					}
				}
				JOINT LeftShoulder
				{
					OFFSET 0.000000 0.000000 0.000000
					CHANNELS 3 Zrotation Yrotation Xrotation
					JOINT LeftArm
					{
						OFFSET 3.362410 1.200890 -0.311210
						CHANNELS 3 Zrotation Yrotation Xrotation
						JOINT LeftForeArm
						{
							OFFSET 4.983000 -0.000000 -0.000000
							CHANNELS 3 Zrotation Yrotation Xrotation
							JOINT LeftHand
							{
								OFFSET 3.483560 -0.000000 -0.000000
								CHANNELS 3 Zrotation Yrotation Xrotation
								JOINT LeftFingerBase
								{
									OFFSET 0.000000 0.000000 0.000000
									CHANNELS 3 Zrotation Yrotation Xrotation
									JOINT LeftHandIndex1
									{
										OFFSET 0.715260 -0.000000 -0.000000
										CHANNELS 3 Zrotation Yrotation Xrotation
										End Site
										{
											OFFSET 0.000000 0.000000 0.000000
										}
									}
								}
								JOINT LThumb
								{
									OFFSET 0.000000 0.000000 0.000000
									CHANNELS 3 Zrotation Yrotation Xrotation
									End Site
									{
										OFFSET 0.000000 0.000000 0.000000
									}
								}
							}
						}
					}
				}
				JOINT RightShoulder
				{
					OFFSET 0.000000 0.000000 0.000000
					CHANNELS 3 Zrotation Yrotation Xrotation
					JOINT RightArm
					{
						OFFSET -3.136600 1.374050 -0.404650
						CHANNELS 3 Zrotation Yrotation Xrotation
						JOINT RightForeArm
						{
							OFFSET -5.241900 -0.000000 -0.000000
							CHANNELS 3 Zrotation Yrotation Xrotation
							JOINT RightHand
							{
								OFFSET -3.444170 -0.000000 -0.000000
								CHANNELS 3 Zrotation Yrotation Xrotation
								JOINT RightFingerBase
								{
									OFFSET 0.000000 0.000000 0.000000
									CHANNELS 3 Zrotation Yrotation Xrotation
									JOINT RightHandIndex1
									{
										OFFSET -0.622530 -0.000000 -0.000000
										CHANNELS 3 Zrotation Yrotation Xrotation
										End Site
										{
											OFFSET 0.000000 0.000000 0.000000
										}
									}
								}
								JOINT RThumb
								{
									OFFSET 0.000000 0.000000 0.000000
									CHANNELS 3 Zrotation Yrotation Xrotation
									End Site
									{
										OFFSET 0.000000 0.000000 0.000000
									}
								}
							}
						}
					}
				}
			}
		}
	}
}
MOTION
Frames: 5
Frame Time: 0.008333
-3.396915 17.780600 0.332286 -0.737694 -4.275079 8.198195 -0.748144 19.796806 -1.605666 -15.679558 2.667920 -10.215969 0.650836 1.370850 20.608314 28.389328 -10.643712 -6.330704 -5.164052 2.000115 -8.728467 -0.753886 -18.316142 1.829549 20.225420 4.518997 -8.582517 -3.424715 2.344643 16.592637 -33.294156 10.388930 -12.573640 4.498305 -2.743188 -8.038926 0.470187 -2.828663 7.454716 -7.933800 -2.766859 13.539946 5.073779 8.623681 -32.601062 -1.762091 0.819231 -14.953825 5.375358 0.053651 10.596055 -1.632721 -0.796606 -8.300611 19.297252 37.353953 -8.010274 -44.529937 -21.288450 14.115832 5.714773 -13.221498 10.433014 -1.047824 1.375238 1.268619 -1.369601 9.209790 -0.000000 0.000000 0.000000 0.000000 0.000000 0.000000 0.000000 -10.729039 -33.252683 -7.527487 31.056666 16.093650 18.614090 -7.829489 16.775700 1.077033 -3.501430 -8.080083 0.568122 -3.449181 -11.428505 -0.000000 0.000000 0.000000 0.000000 0.000000 0.000000 0.000000 
-3.396780 17.780450 0.332969 -0.737860 -4.277946 8.199469 -0.747890 19.795356 -1.605120 -15.676133 2.674987 -10.210887 0.645774 1.367515 20.597756 28.377522 -10.651912 -6.329744 -5.170160 2.001393 -8.736773 -0.752935 -18.318998 1.828091 20.225911 4.520451 -8.587622 -3.427861 2.342103 16.605078 -33.296981 10.391408 -12.572731 4.498368 -2.742719 -8.040800 0.469075 -2.828138 7.457514 -7.935636 -2.766078 13.545867 5.079817 8.626818 -32.594644 -1.768189 0.822044 -14.964078 5.375317 0.057082 10.596403 -1.632182 -0.794331 -8.300619 19.303360 37.357669 -7.972174 -44.489085 -21.299581 14.205967 5.694541 -13.286026 10.413803 -1.038432 1.368460 1.269532 -1.362300 9.208020 -0.000000 0.000000 0.000000 0.000000 0.000000 0.000000 0.000000 -10.724339 -33.255992 -7.538759 31.048546 16.108852 18.612540 -7.832044 16.783177 1.075936 -3.505525 -8.073183 0.571263 -3.453059 -11.428044 -0.000000 0.000000 0.000000 0.000000 0.000000 0.000000 0.000000 
-3.396570 17.780450 0.333529 -0.737636 -4.277150 8.200086 -0.748058 19.795217 -1.605481 -15.673209 2.680497 -10.208418 0.642315 1.365918 20.595599 28.370307 -10.660867 -6.337815 -5.171801 2.002195 -8.735531 -0.751831 -18.320422 1.826685 20.225399 4.522073 -8.591231 -3.431855 2.338017 16.616210 -33.299273 10.391455 -12.588151 4.494000 -2.741071 -8.032429 0.468457 -2.826015 7.461150 -7.935113 -2.763961 13.552331 5.079196 8.626466 -32.598943 -1.768222 0.823352 -14.961699 5.375164 0.058326 10.593180 -1.632011 -0.793780 -8.301876 19.301477 37.362486 -7.973501 -44.480811 -21.322082 14.214341 5.702728 -13.304033 10.426695 -1.025654 1.364091 1.285776 -1.351963 9.206554 -0.000000 0.000000 0.000000 0.000000 0.000000 0.000000 0.000000 -10.723533 -33.262589 -7.540485 31.040307 16.119413 18.622717 -7.834144 16.789174 1.085813 -3.508491 -8.062360 0.580500 -3.454182 -11.426277 -0.000000 0.000000 0.000000 0.000000 0.000000 0.000000 0.000000 
-3.396420 17.780450 0.333990 -0.738554 -4.278475 8.201669 -0.747457 19.795587 -1.603287 -15.668847 2.683946 -10.207966 0.636758 1.361780 20.588512 28.358662 -10.670125 -6.335554 -5.175456 2.003791 -8.736848 -0.751607 -18.322555 1.823296 20.227503 4.517369 -8.590320 -3.431801 2.337917 16.616033 -33.314764 10.393136 -12.581975 4.491346 -2.737930 -8.035576 0.466456 -2.823476 7.464373 -7.930410 -2.761355 13.559301 5.080382 8.625128 -32.612154 -1.768427 0.815653 -14.954340 5.368371 0.052155 10.591761 -1.633837 -0.791524 -8.303382 19.306671 37.361649 -7.972278 -44.473645 -21.329127 14.209969 5.705570 -13.327615 10.416871 -1.021553 1.363728 1.284485 -1.347691 9.205532 -0.000000 0.000000 0.000000 0.000000 0.000000 0.000000 0.000000 -10.726943 -33.260090 -7.560698 31.025151 16.129574 18.598976 -7.816929 16.810262 1.049739 -3.489278 -8.114987 0.546190 -3.441216 -11.433474 -0.000000 0.000000 0.000000 0.000000 0.000000 0.000000 0.000000 
-3.396150 17.780300 0.334773 -0.739802 -4.273341 8.200643 -0.744969 19.795063 -1.601198 -15.664392 2.690948 -10.202372 0.630319 1.355840 20.580053 28.347442 -10.685689 -6.341885 -5.178071 2.004758 -8.735261 -0.751293 -18.322741 1.826536 20.225145 4.512604 -8.585241 -3.428811 2.339515 16.607625 -33.311845 10.393631 -12.580995 4.492839 -2.738954 -8.036764 0.463141 -2.823854 7.458509 -7.935106 -2.761332 13.584264 5.095553 8.633652 -32.620191 -1.767147 0.809737 -14.955367 5.361435 0.047879 10.588119 -1.635431 -0.788333 -8.305146 19.309220 37.373132 -7.969980 -44.475122 -21.341089 14.223751 5.700355 -13.351343 10.421003 -1.041428 1.379280 1.276341 -1.366887 9.208265 -0.000000 0.000000 0.000000 0.000000 0.000000 0.000000 0.000000 -10.714701 -33.263650 -7.564899 30.994516 16.145940 18.615921 -7.819648 16.814595 1.050183 -3.493884 -8.112649 0.552159 -3.444552 -11.435729 -0.000000 0.000000 0.000000 0.000000 0.000000 0.000000 0.000000 
